PathFileType	3	(X/Y/Z)	walking_2__view2_aligned.trc
DataRate	CameraRate	NumFrames	NumMarkers	Units	OrigDataRate	OrigDataStartFrame	OrigNumFrames
100.0	100.0	18	19	mm	100.0	221	6310
Frame#	Time	pelvis			neck			head			hip_left			hip_right			knee_left			knee_right			ankle_left			ankle_right			heel_left			heel_right			toe_left			toe_right			shoulder_left			shoulder_right			elbow_left			elbow_right			wrist_left			wrist_right			
		X1	Y1	Z1	X2	Y2	Z2	X3	Y3	Z3	X4	Y4	Z4	X5	Y5	Z5	X6	Y6	Z6	X7	Y7	Z7	X8	Y8	Z8	X9	Y9	Z9	X10	Y10	Z10	X11	Y11	Z11	X12	Y12	Z12	X13	Y13	Z13	X14	Y14	Z14	X15	Y15	Z15	X16	Y16	Z16	X17	Y17	Z17	X18	Y18	Z18	X19	Y19	Z19	
221	2.20000	-43.229896	958.390115	145.196269	-78.837828	1516.790836	209.308058	-88.862223	1622.316063	344.162904	33.265222	957.210740	147.063798	-119.725013	959.569490	143.328724	84.576159	533.693014	233.753530	-123.153486	543.676827	291.911754	98.380597	299.898960	-143.874440	-128.551048	96.419522	297.403724	93.881187	305.352040	-206.397795	-129.617997	36.384827	267.405750	105.574794	83.432297	-118.763704	-133.246725	64.344525	512.864561	109.864719	1494.334191	203.566034	-260.399678	1443.213493	190.503345	188.272712	1214.758262	230.313048	-248.771223	1149.179889	207.867526	-30.961117	1229.916384	451.493192	-30.718483	1200.417692	411.252409
222	2.21000	-42.451180	957.575324	146.306285	-76.056417	1515.855807	210.140425	-84.883627	1621.261686	345.358489	34.016717	956.322204	148.223247	-118.919100	958.828447	144.389306	84.292880	534.161300	239.953525	-124.763693	541.858503	284.452052	98.166250	294.021541	-123.126254	-130.117452	99.673086	280.066642	93.884601	297.351657	-184.338083	-130.964234	40.854244	249.328737	104.103428	84.230813	-91.837130	-135.679078	64.670732	492.383796	111.849162	1492.156552	202.040804	-257.729636	1442.914659	191.871109	189.579362	1212.093091	226.896495	-248.000133	1148.726932	208.509377	-21.656122	1219.904116	445.032596	-34.646592	1192.083645	409.762803
223	2.22000	-41.672463	956.760534	147.416301	-73.275006	1514.920778	210.972792	-80.905031	1620.207310	346.554075	34.768213	955.433669	149.382697	-118.113186	958.087404	145.449888	84.009602	534.629587	246.153519	-126.373900	540.040179	276.992350	97.951903	288.144122	-102.378068	-131.683856	102.926651	262.729560	93.888015	289.351273	-162.278370	-132.310471	45.323661	231.251724	102.632062	85.029329	-64.910556	-138.111431	64.996939	471.903031	113.833604	1489.978913	200.515575	-255.059593	1442.615824	193.238873	190.886012	1209.427921	223.479942	-247.229043	1148.273976	209.151227	-12.351128	1209.891848	438.572000	-38.574701	1183.749597	408.273197
224	2.23000	-40.893747	955.945743	148.526316	-70.493595	1513.985749	211.805159	-76.926436	1619.152934	347.749660	35.519709	954.545133	150.542146	-117.307273	957.346361	146.510469	83.726323	535.097873	252.353514	-127.984106	538.221854	269.532648	97.737557	282.266703	-81.629882	-133.250260	106.180216	245.392478	93.891429	281.350890	-140.218658	-133.656708	49.793077	213.174711	101.160696	85.827845	-37.983982	-140.543783	65.323146	451.422266	115.818047	1487.801274	198.990346	-252.389550	1442.316990	194.606637	192.192661	1206.762750	220.063390	-246.457953	1147.821019	209.793077	-3.046133	1199.879580	432.111404	-42.502810	1175.415550	406.783591
225	2.24000	-40.115030	955.130953	149.636332	-67.712184	1513.050720	212.637526	-72.947840	1618.098557	348.945246	36.271205	953.656597	151.701595	-116.501359	956.605318	147.571051	83.443044	535.566160	258.553508	-129.594313	536.403530	262.072947	97.523210	276.389284	-60.881696	-134.816663	109.433780	228.055396	93.894843	273.350506	-118.158945	-135.002945	54.262494	195.097698	99.689329	86.626361	-11.057408	-142.976136	65.649354	430.941501	117.802489	1485.623634	197.465117	-249.719507	1442.018156	195.974401	193.499311	1204.097579	216.646837	-245.686862	1147.368063	210.434927	6.258862	1189.867311	425.650808	-46.430919	1167.081502	405.293985
226	2.25000	-39.336314	954.316162	150.746348	-64.930773	1512.115691	213.469893	-68.969244	1617.044181	350.140831	37.022700	952.768062	152.861045	-115.695446	955.864275	148.631632	83.159765	536.034446	264.753502	-131.204520	534.585206	254.613245	97.308863	270.511865	-40.133510	-136.383067	112.687345	210.718314	93.898257	265.350123	-96.099233	-136.349182	58.731910	177.020685	98.217963	87.424877	15.869166	-145.408488	65.975561	410.460736	119.786931	1483.445995	195.939888	-247.049465	1441.719321	197.342166	194.805961	1201.432409	213.230284	-244.915772	1146.915107	211.076778	15.563856	1179.855043	419.190212	-50.359028	1158.747454	403.804379
227	2.26000	-38.557597	953.501372	151.856364	-62.149362	1511.180662	214.302259	-64.990649	1615.989805	351.336417	37.774196	951.879526	154.020494	-114.889533	955.123232	149.692214	82.876487	536.502733	270.953497	-132.814727	532.766882	247.153543	97.094516	264.634445	-19.385324	-137.949471	115.940910	193.381232	93.901671	257.349739	-74.039520	-137.695419	63.201327	158.943672	96.746597	88.223393	42.795740	-147.840841	66.301768	389.979971	121.771374	1481.268356	194.414658	-244.379422	1441.420487	198.709930	196.112610	1198.767238	209.813731	-244.144682	1146.462150	211.718628	24.868851	1169.842775	412.729616	-54.287137	1150.413407	402.314773
228	2.27000	-37.778880	952.686581	152.966380	-59.367951	1510.245633	215.134626	-61.012053	1614.935428	352.532002	38.525692	950.990991	155.179943	-114.083619	954.382189	150.752795	82.593208	536.971019	277.153491	-134.424934	530.948558	239.693841	96.880170	258.757026	1.362862	-139.515875	119.194474	176.044150	93.905085	249.349356	-51.979807	-139.041656	67.670744	140.866659	95.275231	89.021909	69.722314	-150.273194	66.627975	369.499206	123.755816	1479.090717	192.889429	-241.709379	1441.121653	200.077694	197.419260	1196.102067	206.397179	-243.373592	1146.009194	212.360478	34.173846	1159.830506	406.269020	-58.215246	1142.079359	400.825168
229	2.28000	-37.000164	951.871791	154.076396	-56.586540	1509.310603	215.966993	-57.033457	1613.881052	353.727588	39.277188	950.102455	156.339393	-113.277706	953.641146	151.813377	82.309929	537.439306	283.353486	-136.035141	529.130234	232.234139	96.665823	252.879607	22.111047	-141.082279	122.448039	158.707068	93.908500	241.348972	-29.920095	-140.387893	72.140160	122.789646	93.803864	89.820425	96.648888	-152.705546	66.954182	349.018440	125.740259	1476.913077	191.364200	-239.039337	1440.822818	201.445458	198.725910	1193.436897	202.980626	-242.602502	1145.556237	213.002329	43.478840	1149.818238	399.808424	-62.143355	1133.745312	399.335562
230	2.29000	-36.221447	951.057000	155.186412	-53.805129	1508.375574	216.799360	-53.054862	1612.826676	354.923173	40.028683	949.213920	157.498842	-112.471792	952.900103	152.873958	82.026651	537.907592	289.553480	-137.645348	527.311909	224.774437	96.451476	247.002188	42.859233	-142.648683	125.701604	141.369986	93.911914	233.348589	-7.860382	-141.734130	76.609577	104.712633	92.332498	90.618941	123.575462	-155.137899	67.280389	328.537675	127.724701	1474.735438	189.838971	-236.369294	1440.523984	202.813222	200.032560	1190.771726	199.564073	-241.831412	1145.103281	213.644179	52.783835	1139.805970	393.347828	-66.071464	1125.411264	397.845956
231	2.30000	-35.442731	950.242210	156.296428	-51.023718	1507.440545	217.631727	-49.076266	1611.772299	356.118759	40.780179	948.325384	158.658291	-111.665879	952.159060	153.934540	81.743372	538.375879	295.753475	-139.255554	525.493585	217.314736	96.237130	241.124769	63.607419	-144.215087	128.955169	124.032904	93.915328	225.348205	14.199330	-143.080367	81.078993	86.635620	90.861132	91.417457	150.502036	-157.570251	67.606597	308.056910	129.709144	1472.557799	188.313742	-233.699251	1440.225150	204.180986	201.339209	1188.106556	196.147520	-241.060322	1144.650324	214.286029	62.088829	1129.793702	386.887232	-69.999573	1117.077217	396.356350
232	2.31000	-34.558414	949.624011	157.222996	-48.589144	1506.719331	218.505881	-45.812354	1610.874643	357.317244	41.650832	947.676418	159.588444	-110.767921	951.571629	154.857523	81.742613	538.581862	299.954829	-140.231661	524.314014	212.677005	96.147226	236.204854	79.120818	-145.288114	131.747664	111.659463	93.951516	218.742104	30.733794	-143.995834	84.866851	73.665760	89.933209	91.715649	170.928877	-159.295100	67.926721	293.098851	131.524130	1470.840155	187.420825	-231.283641	1440.084658	205.270311	202.703091	1186.091577	193.561743	-240.343455	1144.535835	214.393688	70.171878	1121.522554	381.323189	-73.784595	1110.161271	394.128029
233	2.32000	-33.674096	949.005811	158.149565	-46.154569	1505.998116	219.380035	-42.548441	1609.976986	358.515730	42.521485	947.027453	160.518596	-109.869963	950.984199	155.780505	81.741853	538.787845	304.156182	-141.207767	523.134444	208.039275	96.057323	231.284939	94.634218	-146.361140	134.540160	99.286023	93.987703	212.136003	47.268258	-144.911300	88.654709	60.695900	89.005286	92.013841	191.355717	-161.019948	68.246845	278.140792	133.339116	1469.122511	186.527908	-228.868031	1439.944167	206.359635	204.066973	1184.076598	190.975966	-239.626587	1144.421346	214.501347	78.254926	1113.251407	375.759145	-77.569617	1103.245326	391.899708
234	2.33000	-32.789779	948.387612	159.076134	-43.719995	1505.276901	220.254189	-39.284529	1609.079329	359.714216	43.392137	946.378487	161.448749	-108.972006	950.396768	156.703488	81.741094	538.993828	308.357536	-142.183874	521.954873	203.401544	95.967420	226.365023	110.147617	-147.434167	137.332656	86.912582	94.023891	205.529902	63.802722	-145.826767	92.442566	47.726040	88.077364	92.312034	211.782558	-162.744797	68.566969	263.182733	135.154102	1467.404867	185.634991	-226.452420	1439.803676	207.448959	205.430855	1182.061619	188.390188	-238.909719	1144.306856	214.609005	86.337975	1104.980260	370.195102	-81.354639	1096.329381	389.671388
235	2.34000	-31.905462	947.769413	160.002703	-41.285421	1504.555686	221.128343	-36.020616	1608.181672	360.912702	44.262790	945.729522	162.378902	-108.074048	949.809338	157.626470	81.740334	539.199811	312.558890	-143.159980	520.775302	198.763814	95.877517	221.445108	125.661016	-148.507193	140.125152	74.539142	94.060079	198.923801	80.337185	-146.742234	96.230424	34.756180	87.149441	92.610226	232.209398	-164.469645	68.887094	248.224674	136.969089	1465.687223	184.742074	-224.036810	1439.663185	208.538284	206.794737	1180.046640	185.804411	-238.192851	1144.192367	214.716664	94.421023	1096.709112	364.631058	-85.139661	1089.413436	387.443067
236	2.35000	-31.021145	947.151213	160.929272	-38.850847	1503.834471	222.002497	-32.756704	1607.284015	362.111187	45.133443	945.080556	163.309054	-107.176090	949.221907	158.549453	81.739575	539.405794	316.760244	-144.136087	519.595731	194.126083	95.787614	216.525193	141.174415	-149.580220	142.917648	62.165701	94.096267	192.317700	96.871649	-147.657701	100.018282	21.786320	86.221518	92.908418	252.636239	-166.194494	69.207218	233.266615	138.784075	1463.969579	183.849157	-221.621200	1439.522693	209.627608	208.158619	1178.031661	183.218634	-237.475983	1144.077878	214.824323	102.504072	1088.437965	359.067015	-88.924683	1082.497491	385.214746
237	2.36000	-30.136827	946.533014	161.855840	-36.416273	1503.113257	222.876651	-29.492791	1606.386358	363.309673	46.004096	944.431590	164.239207	-106.278132	948.634477	159.472435	81.738815	539.611778	320.961598	-145.112193	518.416161	189.488353	95.697711	211.605277	156.687815	-150.653247	145.710144	49.792261	94.132455	185.711600	113.406113	-148.573167	103.806139	8.816460	85.293595	93.206610	273.063079	-167.919342	69.527342	218.308556	140.599061	1462.251935	182.956240	-219.205590	1439.382202	210.716933	209.522500	1176.016682	180.632857	-236.759115	1143.963388	214.931982	110.587120	1080.166818	353.502971	-92.709705	1075.581546	382.986426
238	2.37000	-29.252510	945.914815	162.782409	-33.981699	1502.392042	223.750805	-26.228879	1605.488701	364.508159	46.874749	943.782625	165.169360	-105.380174	948.047046	160.395418	81.738056	539.817761	325.162952	-146.088300	517.236590	184.850622	95.607807	206.685362	172.201214	-151.726273	148.502640	37.418820	94.168642	179.105499	129.940577	-149.488634	107.593997	-4.153400	84.365673	93.504802	293.489920	-169.644190	69.847467	203.350497	142.414047	1460.534291	182.063323	-216.789980	1439.241711	211.806257	210.886382	1174.001703	178.047079	-236.042247	1143.848899	215.039640	118.670169	1071.895670	347.938928	-96.494727	1068.665601	380.758105
